<?xml version="1.0" encoding="iso-8859-1"?>
<!-- Uploaded to: SVG Repo, www.svgrepo.com, Generator: SVG Repo Mixer Tools -->
<svg version="1.1" id="Layer_1" xmlns="http://www.w3.org/2000/svg" xmlns:xlink="http://www.w3.org/1999/xlink" 
	 viewBox="0 0 451.296 451.296" xml:space="preserve">
<circle style="fill:#E05B49;" cx="225.648" cy="225.638" r="225.638"/>
<path style="opacity:0.1;enable-background:new    ;" d="M282.952,138.648l-57.308-42.311l-57.308,42.311h-42.64v31.498
	l-29.335,21.673v163.085l93.548,93.548c11.643,1.853,23.574,2.845,35.739,2.845c112.421,0,205.609-82.22,222.791-189.801
	L325.592,138.648H282.952z"/>
<polygon style="fill:#FCD462;" points="225.648,96.355 96.365,191.802 225.648,287.904 354.931,191.802 "/>
<rect x="125.721" y="138.65" style="fill:#FFFFFF;" width="199.834" height="170.138"/>
<g>
	<rect x="145.315" y="164.403" style="fill:#EBF0F3;" width="157.169" height="7.05"/>
	<rect x="145.315" y="195.584" style="fill:#EBF0F3;" width="157.169" height="7.05"/>
	<rect x="145.315" y="226.765" style="fill:#EBF0F3;" width="157.169" height="7.05"/>
	<rect x="145.315" y="257.946" style="fill:#EBF0F3;" width="157.169" height="7.05"/>
</g>
<g>
	<polygon style="fill:#F6C358;" points="96.365,191.802 96.365,354.921 201.237,276.965 	"/>
	<polygon style="fill:#F6C358;" points="250.059,276.965 354.931,354.921 354.931,191.802 	"/>
</g>
<polygon style="fill:#FCD462;" points="225.648,296.789 201.237,276.965 96.365,354.921 354.931,354.921 250.059,276.965 "/>
<polygon style="fill:#DC8744;" points="225.648,296.789 250.059,276.965 354.931,191.802 225.648,287.904 96.365,191.802 
	201.237,276.965 "/>
</svg>